<svg width="208" height="68" viewBox="0 0 208 68" fill="none" xmlns="http://www.w3.org/2000/svg">
<path d="M25.6667 34C25.6667 36.2101 26.5447 38.3297 28.1075 39.8925C29.6703 41.4553 31.7899 42.3333 34 42.3333C36.2102 42.3333 38.3298 41.4553 39.8926 39.8925C41.4554 38.3297 42.3334 36.2101 42.3334 34C42.3334 31.7899 41.4554 29.6702 39.8926 28.1074C38.3298 26.5446 36.2102 25.6667 34 25.6667C31.7899 25.6667 29.6703 26.5446 28.1075 28.1074C26.5447 29.6702 25.6667 31.7899 25.6667 34ZM0.666687 34C0.666687 52.4 15.6 67.3333 34 67.3333C52.4 67.3333 67.3334 52.4 67.3334 34C67.3334 15.6 52.4 0.666656 34 0.666656C15.6 0.666656 0.666687 15.6 0.666687 34ZM7.33335 34H20.6667C20.6667 26.6333 26.6334 20.6667 34 20.6667C41.3667 20.6667 47.3334 26.6333 47.3334 34H60.6667C60.6667 48.7 48.7 60.6667 34 60.6667C19.3 60.6667 7.33335 48.7 7.33335 34Z" fill="#6764FF"/>
<path d="M81.772 47V23.528H89.836C91.132 23.528 92.344 23.66 93.472 23.924C94.6 24.164 95.584 24.584 96.424 25.184C97.264 25.76 97.924 26.54 98.404 27.524C98.908 28.484 99.16 29.672 99.16 31.088C99.16 32.456 98.908 33.644 98.404 34.652C97.924 35.66 97.264 36.488 96.424 37.136C95.584 37.784 94.612 38.264 93.508 38.576C92.404 38.888 91.228 39.044 89.98 39.044H87.064V47H81.772ZM87.064 34.832H89.656C92.536 34.832 93.976 33.584 93.976 31.088C93.976 29.864 93.592 29 92.824 28.496C92.056 27.992 90.952 27.74 89.512 27.74H87.064V34.832Z" fill="#6764FF"/>
<path d="M109.68 47.432C108.552 47.432 107.46 47.228 106.404 46.82C105.348 46.388 104.412 45.776 103.596 44.984C102.804 44.192 102.168 43.22 101.688 42.068C101.208 40.892 100.968 39.56 100.968 38.072C100.968 36.584 101.208 35.264 101.688 34.112C102.168 32.936 102.804 31.952 103.596 31.16C104.412 30.368 105.348 29.768 106.404 29.36C107.46 28.928 108.552 28.712 109.68 28.712C110.808 28.712 111.888 28.928 112.92 29.36C113.976 29.768 114.9 30.368 115.692 31.16C116.508 31.952 117.156 32.936 117.636 34.112C118.116 35.264 118.356 36.584 118.356 38.072C118.356 39.56 118.116 40.892 117.636 42.068C117.156 43.22 116.508 44.192 115.692 44.984C114.9 45.776 113.976 46.388 112.92 46.82C111.888 47.228 110.808 47.432 109.68 47.432ZM109.68 43.148C110.76 43.148 111.576 42.692 112.128 41.78C112.68 40.868 112.956 39.632 112.956 38.072C112.956 36.512 112.68 35.276 112.128 34.364C111.576 33.452 110.76 32.996 109.68 32.996C108.576 32.996 107.748 33.452 107.196 34.364C106.668 35.276 106.404 36.512 106.404 38.072C106.404 39.632 106.668 40.868 107.196 41.78C107.748 42.692 108.576 43.148 109.68 43.148Z" fill="#6764FF"/>
<path d="M121.981 47V21.764H127.129V36.236H127.273L132.925 29.144H138.685L132.421 36.488L139.153 47H133.429L129.397 40.052L127.129 42.608V47H121.981Z" fill="#6764FF"/>
<path d="M148.676 47.432C147.404 47.432 146.216 47.228 145.112 46.82C144.008 46.388 143.048 45.776 142.232 44.984C141.416 44.168 140.78 43.184 140.324 42.032C139.868 40.88 139.64 39.56 139.64 38.072C139.64 36.632 139.88 35.336 140.36 34.184C140.84 33.008 141.464 32.024 142.232 31.232C143.024 30.416 143.924 29.792 144.932 29.36C145.94 28.928 146.984 28.712 148.064 28.712C149.336 28.712 150.44 28.928 151.376 29.36C152.336 29.792 153.128 30.392 153.752 31.16C154.4 31.928 154.88 32.84 155.192 33.896C155.504 34.928 155.66 36.056 155.66 37.28C155.66 37.76 155.636 38.216 155.588 38.648C155.54 39.08 155.492 39.404 155.444 39.62H144.752C144.992 40.916 145.52 41.876 146.336 42.5C147.176 43.1 148.196 43.4 149.396 43.4C150.668 43.4 151.952 43.004 153.248 42.212L155.012 45.416C154.1 46.04 153.08 46.532 151.952 46.892C150.848 47.252 149.756 47.432 148.676 47.432ZM144.716 36.128H151.16C151.16 35.12 150.932 34.304 150.476 33.68C150.02 33.056 149.252 32.744 148.172 32.744C147.332 32.744 146.588 33.02 145.94 33.572C145.316 34.124 144.908 34.976 144.716 36.128ZM148.424 26.408L145.832 23.816L151.376 17.264L154.94 20.756L148.424 26.408Z" fill="#6764FF"/>
<path d="M165.257 35.12L164.681 37.28H169.685L169.145 35.12C168.809 33.944 168.485 32.696 168.173 31.376C167.861 30.056 167.549 28.784 167.237 27.56H167.093C166.805 28.808 166.505 30.092 166.193 31.412C165.905 32.708 165.593 33.944 165.257 35.12ZM156.761 47L164.105 23.528H170.477L177.821 47H172.205L170.765 41.42H163.601L162.161 47H156.761Z" fill="#6764FF"/>
<path d="M180.385 47V23.528H188.449C189.745 23.528 190.957 23.66 192.085 23.924C193.213 24.164 194.197 24.584 195.037 25.184C195.877 25.76 196.537 26.54 197.017 27.524C197.521 28.484 197.773 29.672 197.773 31.088C197.773 32.456 197.521 33.644 197.017 34.652C196.537 35.66 195.877 36.488 195.037 37.136C194.197 37.784 193.225 38.264 192.121 38.576C191.017 38.888 189.841 39.044 188.593 39.044H185.677V47H180.385ZM185.677 34.832H188.269C191.149 34.832 192.589 33.584 192.589 31.088C192.589 29.864 192.205 29 191.437 28.496C190.669 27.992 189.565 27.74 188.125 27.74H185.677V34.832Z" fill="#6764FF"/>
<path d="M201.831 47V23.528H207.123V47H201.831Z" fill="#6764FF"/>
</svg>
