<svg width="80" height="80" viewBox="0 0 80 80" fill="none" xmlns="http://www.w3.org/2000/svg">
<path d="M31.6667 40C31.6667 42.2101 32.5447 44.3297 34.1075 45.8925C35.6703 47.4553 37.7899 48.3333 40 48.3333C42.2101 48.3333 44.3298 47.4553 45.8926 45.8925C47.4554 44.3297 48.3333 42.2101 48.3333 40C48.3333 37.7899 47.4554 35.6702 45.8926 34.1074C44.3298 32.5446 42.2101 31.6667 40 31.6667C37.7899 31.6667 35.6703 32.5446 34.1075 34.1074C32.5447 35.6702 31.6667 37.7899 31.6667 40ZM6.66668 40C6.66668 58.4 21.6 73.3333 40 73.3333C58.4 73.3333 73.3333 58.4 73.3333 40C73.3333 21.6 58.4 6.66666 40 6.66666C21.6 6.66666 6.66668 21.6 6.66668 40ZM13.3333 40H26.6667C26.6667 32.6333 32.6333 26.6667 40 26.6667C47.3667 26.6667 53.3333 32.6333 53.3333 40H66.6667C66.6667 54.7 54.7 66.6667 40 66.6667C25.3 66.6667 13.3333 54.7 13.3333 40Z" fill="#F24E1E" fill-opacity="0.8"/>
</svg>
