<svg width="131" height="45" viewBox="0 0 131 45" fill="none" xmlns="http://www.w3.org/2000/svg">
<path d="M2.772 35V11.528H10.836C12.132 11.528 13.344 11.66 14.472 11.924C15.6 12.164 16.584 12.584 17.424 13.184C18.264 13.76 18.924 14.54 19.404 15.524C19.908 16.484 20.16 17.672 20.16 19.088C20.16 20.456 19.908 21.644 19.404 22.652C18.924 23.66 18.264 24.488 17.424 25.136C16.584 25.784 15.612 26.264 14.508 26.576C13.404 26.888 12.228 27.044 10.98 27.044H8.064V35H2.772ZM8.064 22.832H10.656C13.536 22.832 14.976 21.584 14.976 19.088C14.976 17.864 14.592 17 13.824 16.496C13.056 15.992 11.952 15.74 10.512 15.74H8.064V22.832ZM30.6799 35.432C29.5519 35.432 28.4599 35.228 27.4039 34.82C26.3479 34.388 25.4119 33.776 24.5959 32.984C23.8039 32.192 23.1679 31.22 22.6879 30.068C22.2079 28.892 21.9679 27.56 21.9679 26.072C21.9679 24.584 22.2079 23.264 22.6879 22.112C23.1679 20.936 23.8039 19.952 24.5959 19.16C25.4119 18.368 26.3479 17.768 27.4039 17.36C28.4599 16.928 29.5519 16.712 30.6799 16.712C31.8079 16.712 32.8879 16.928 33.9199 17.36C34.9759 17.768 35.8999 18.368 36.6919 19.16C37.5079 19.952 38.1559 20.936 38.6359 22.112C39.1159 23.264 39.3559 24.584 39.3559 26.072C39.3559 27.56 39.1159 28.892 38.6359 30.068C38.1559 31.22 37.5079 32.192 36.6919 32.984C35.8999 33.776 34.9759 34.388 33.9199 34.82C32.8879 35.228 31.8079 35.432 30.6799 35.432ZM30.6799 31.148C31.7599 31.148 32.5759 30.692 33.1279 29.78C33.6799 28.868 33.9559 27.632 33.9559 26.072C33.9559 24.512 33.6799 23.276 33.1279 22.364C32.5759 21.452 31.7599 20.996 30.6799 20.996C29.5759 20.996 28.7479 21.452 28.1959 22.364C27.6679 23.276 27.4039 24.512 27.4039 26.072C27.4039 27.632 27.6679 28.868 28.1959 29.78C28.7479 30.692 29.5759 31.148 30.6799 31.148ZM42.9806 35V9.764H48.1286V24.236H48.2726L53.9246 17.144H59.6846L53.4206 24.488L60.1526 35H54.4286L50.3966 28.052L48.1286 30.608V35H42.9806ZM69.6758 35.432C68.4038 35.432 67.2158 35.228 66.1118 34.82C65.0078 34.388 64.0478 33.776 63.2318 32.984C62.4158 32.168 61.7798 31.184 61.3238 30.032C60.8678 28.88 60.6398 27.56 60.6398 26.072C60.6398 24.632 60.8798 23.336 61.3598 22.184C61.8398 21.008 62.4638 20.024 63.2318 19.232C64.0238 18.416 64.9238 17.792 65.9318 17.36C66.9398 16.928 67.9838 16.712 69.0638 16.712C70.3358 16.712 71.4398 16.928 72.3758 17.36C73.3358 17.792 74.1278 18.392 74.7518 19.16C75.3998 19.928 75.8798 20.84 76.1918 21.896C76.5038 22.928 76.6598 24.056 76.6598 25.28C76.6598 25.76 76.6358 26.216 76.5878 26.648C76.5398 27.08 76.4918 27.404 76.4438 27.62H65.7518C65.9918 28.916 66.5198 29.876 67.3358 30.5C68.1758 31.1 69.1958 31.4 70.3958 31.4C71.6678 31.4 72.9518 31.004 74.2478 30.212L76.0118 33.416C75.0998 34.04 74.0798 34.532 72.9518 34.892C71.8478 35.252 70.7558 35.432 69.6758 35.432ZM65.7158 24.128H72.1598C72.1598 23.12 71.9318 22.304 71.4758 21.68C71.0198 21.056 70.2518 20.744 69.1718 20.744C68.3318 20.744 67.5878 21.02 66.9398 21.572C66.3158 22.124 65.9078 22.976 65.7158 24.128ZM69.4238 14.408L66.8318 11.816L72.3758 5.264L75.9398 8.756L69.4238 14.408ZM86.2566 23.12L85.6806 25.28H90.6846L90.1446 23.12C89.8086 21.944 89.4846 20.696 89.1726 19.376C88.8606 18.056 88.5486 16.784 88.2366 15.56H88.0926C87.8046 16.808 87.5046 18.092 87.1926 19.412C86.9046 20.708 86.5926 21.944 86.2566 23.12ZM77.7606 35L85.1046 11.528H91.4766L98.8206 35H93.2046L91.7646 29.42H84.6006L83.1606 35H77.7606ZM101.385 35V11.528H109.449C110.745 11.528 111.957 11.66 113.085 11.924C114.213 12.164 115.197 12.584 116.037 13.184C116.877 13.76 117.537 14.54 118.017 15.524C118.521 16.484 118.773 17.672 118.773 19.088C118.773 20.456 118.521 21.644 118.017 22.652C117.537 23.66 116.877 24.488 116.037 25.136C115.197 25.784 114.225 26.264 113.121 26.576C112.017 26.888 110.841 27.044 109.593 27.044H106.677V35H101.385ZM106.677 22.832H109.269C112.149 22.832 113.589 21.584 113.589 19.088C113.589 17.864 113.205 17 112.437 16.496C111.669 15.992 110.565 15.74 109.125 15.74H106.677V22.832ZM122.831 35V11.528H128.123V35H122.831Z" fill="#6764FF"/>
</svg>
